<?xml version="1.0" encoding="UTF-8"?>
<!DOCTYPE svg PUBLIC "-//W3C//DTD SVG 1.1//EN" "http://www.w3.org/Graphics/SVG/1.1/DTD/svg11.dtd">
<svg xmlns="http://www.w3.org/2000/svg" version="1.1" width="64px" height="64px" style="shape-rendering:geometricPrecision; text-rendering:geometricPrecision; image-rendering:optimizeQuality; fill-rule:evenodd; clip-rule:evenodd" xmlns:xlink="http://www.w3.org/1999/xlink">
<g><path style="opacity:0.882" fill="#ebebed" d="M 9.5,4.5 C 21.8378,4.33346 34.1712,4.50012 46.5,5C 47.8333,6.66667 47.8333,8.33333 46.5,10C 35.1667,10.3333 23.8333,10.6667 12.5,11C 12,11.5 11.5,12 11,12.5C 10.6667,23.8333 10.3333,35.1667 10,46.5C 8.33333,47.8333 6.66667,47.8333 5,46.5C 4.33333,34.1667 4.33333,21.8333 5,9.5C 6.02496,7.31305 7.52496,5.64638 9.5,4.5 Z"/></g>
<g><path style="opacity:0.987" fill="#ebeaec" d="M 58.5,44.5 C 54.2984,44.1832 50.2984,44.5166 46.5,45.5C 45.8333,45.5 45.5,45.8333 45.5,46.5C 44.5166,50.2984 44.1832,54.2984 44.5,58.5C 36.16,58.6664 27.8267,58.4997 19.5,58C 18.0692,57.5348 16.9025,56.7014 16,55.5C 15.3333,43.1667 15.3333,30.8333 16,18.5C 16.8333,17.6667 17.6667,16.8333 18.5,16C 30.8333,15.3333 43.1667,15.3333 55.5,16C 56.3333,16.8333 57.1667,17.6667 58,18.5C 58.4998,27.1603 58.6664,35.8269 58.5,44.5 Z"/></g>
<g><path style="opacity:0.977" fill="#f4606e" d="M 46.5,45.5 C 50.2984,44.5166 54.2984,44.1832 58.5,44.5C 58.1667,45.5 57.5,46.1667 56.5,46.5C 53.3752,45.5206 50.0419,45.1872 46.5,45.5 Z"/></g>
<g><path style="opacity:1" fill="#f92331" d="M 46.5,45.5 C 50.0419,45.1872 53.3752,45.5206 56.5,46.5C 53.5,50.1667 50.1667,53.5 46.5,56.5C 45.5206,53.3752 45.1872,50.0419 45.5,46.5C 45.5,45.8333 45.8333,45.5 46.5,45.5 Z"/></g>
<g><path style="opacity:1" fill="#f4606f" d="M 45.5,46.5 C 45.1872,50.0419 45.5206,53.3752 46.5,56.5C 46.1667,57.5 45.5,58.1667 44.5,58.5C 44.1832,54.2984 44.5166,50.2984 45.5,46.5 Z"/></g>
</svg>
