<?xml version="1.0" encoding="UTF-8"?>
<!DOCTYPE svg PUBLIC "-//W3C//DTD SVG 1.1//EN" "http://www.w3.org/Graphics/SVG/1.1/DTD/svg11.dtd">
<svg xmlns="http://www.w3.org/2000/svg" version="1.1" width="64px" height="64px" style="shape-rendering:geometricPrecision; text-rendering:geometricPrecision; image-rendering:optimizeQuality; fill-rule:evenodd; clip-rule:evenodd" xmlns:xlink="http://www.w3.org/1999/xlink">
<g><path style="opacity:0.991" fill="#ebeaec" d="M 43.5,1.5 C 39.7039,17.3688 45.7039,23.0355 61.5,18.5C 61.6665,29.505 61.4998,40.505 61,51.5C 59.1667,56 56,59.1667 51.5,61C 38.1667,61.6667 24.8333,61.6667 11.5,61C 7,59.1667 3.83333,56 2,51.5C 1.33333,38.1667 1.33333,24.8333 2,11.5C 3.83333,7 7,3.83333 11.5,2C 22.1615,1.50016 32.8281,1.3335 43.5,1.5 Z"/></g>
<g><path style="opacity:1" fill="#f91d2d" d="M 43.5,1.5 C 45.9328,1.2729 47.5994,2.2729 48.5,4.5C 49.5846,6.58689 51.2512,7.92022 53.5,8.5C 57.3384,10.9937 60.0051,14.327 61.5,18.5C 45.7039,23.0355 39.7039,17.3688 43.5,1.5 Z"/></g>
<g><path style="opacity:0.008" fill="#fa7079" d="M 48.5,4.5 C 50.7488,5.07978 52.4154,6.41311 53.5,8.5C 51.2512,7.92022 49.5846,6.58689 48.5,4.5 Z"/></g>
<g><path style="opacity:1" fill="#f91429" d="M 15.5,25.5 C 26.1719,25.3335 36.8385,25.5002 47.5,26C 48.8333,27 48.8333,28 47.5,29C 36.8333,29.6667 26.1667,29.6667 15.5,29C 14.3157,27.8545 14.3157,26.6879 15.5,25.5 Z"/></g>
<g><path style="opacity:1" fill="#f9162a" d="M 15.5,37.5 C 20.1785,37.3342 24.8452,37.5008 29.5,38C 30.8333,39 30.8333,40 29.5,41C 24.8333,41.6667 20.1667,41.6667 15.5,41C 14.3157,39.8545 14.3157,38.6879 15.5,37.5 Z"/></g>
</svg>
